HIERARCHY
ROOT Hips
{
 OFFSET 0.000000 0.000000 0.000000
 CHANNELS 6 Xposition Yposition Zposition Yrotation Xrotation Zrotation
 JOINT Chest
 {
  OFFSET 0.000000 9.585900 0.002600
  CHANNELS 3 Yrotation Xrotation Zrotation
  JOINT Chest2
  {
   OFFSET 0.000000 9.601200 -0.005300
   CHANNELS 3 Yrotation Xrotation Zrotation
   JOINT Chest3
   {
    OFFSET 0.000000 9.561800 0.000000
    CHANNELS 3 Yrotation Xrotation Zrotation
    JOINT Chest4
    {
     OFFSET 0.000000 9.552100 0.000000
     CHANNELS 3 Yrotation Xrotation Zrotation
     JOINT Neck
     {
      OFFSET 0.000000 14.453000 0.000000
      CHANNELS 3 Yrotation Xrotation Zrotation
      JOINT Head
      {
       OFFSET 0.000000 8.936500 -0.011300
       CHANNELS 3 Yrotation Xrotation Zrotation
       End Site
       {
        OFFSET 0.000000 17.073600 -0.006000
       }
      }
     }
     JOINT RightCollar
     {
      OFFSET -2.921100 9.558500 0.000000
      CHANNELS 3 Yrotation Xrotation Zrotation
      JOINT RightShoulder
      {
       OFFSET -13.519700 0.000000 0.000000
       CHANNELS 3 Yrotation Xrotation Zrotation
       JOINT RightElbow
       {
        OFFSET 0.000000 -29.696600 0.000000
        CHANNELS 3 Yrotation Xrotation Zrotation
        JOINT RightWrist
        {
         OFFSET 0.000000 -24.004700 0.000000
         CHANNELS 3 Yrotation Xrotation Zrotation
         End Site
         {
          OFFSET 0.000000 -17.728500 0.000000
         }
        }
       }
      }
     }
     JOINT LeftCollar
     {
      OFFSET 2.921100 9.558500 0.000000
      CHANNELS 3 Yrotation Xrotation Zrotation
      JOINT LeftShoulder
      {
       OFFSET 13.519700 0.000000 0.000000
       CHANNELS 3 Yrotation Xrotation Zrotation
       JOINT LeftElbow
       {
        OFFSET 0.000000 -29.696600 0.000000
        CHANNELS 3 Yrotation Xrotation Zrotation
        JOINT LeftWrist
        {
         OFFSET 0.000000 -24.004700 0.000000
         CHANNELS 3 Yrotation Xrotation Zrotation
         End Site
         {
          OFFSET 0.000000 -17.728500 0.000000
         }
        }
       }
      }
     }
    }
   }
  }
 }
 JOINT RightHip
 {
  OFFSET -7.771700 -0.012900 -0.001300
  CHANNELS 3 Yrotation Xrotation Zrotation
  JOINT RightKnee
  {
   OFFSET 0.000000 -40.869800 0.001200
   CHANNELS 3 Yrotation Xrotation Zrotation
   JOINT RightAnkle
   {
    OFFSET 0.000000 -39.717900 0.002100
    CHANNELS 3 Yrotation Xrotation Zrotation
    JOINT RightToe
    {
     OFFSET 0.000000 -4.965400 11.033500
     CHANNELS 3 Yrotation Xrotation Zrotation
     End Site
     {
      OFFSET 0.000000 -1.423100 5.872300
     }
    }
   }
  }
 }
 JOINT LeftHip
 {
  OFFSET 7.771700 -0.012900 -0.001300
  CHANNELS 3 Yrotation Xrotation Zrotation
  JOINT LeftKnee
  {
   OFFSET 0.000000 -40.869800 0.001200
   CHANNELS 3 Yrotation Xrotation Zrotation
   JOINT LeftAnkle
   {
    OFFSET 0.000000 -39.717900 0.002100
    CHANNELS 3 Yrotation Xrotation Zrotation
    JOINT LeftToe
    {
     OFFSET 0.000000 -4.965400 11.033500
     CHANNELS 3 Yrotation Xrotation Zrotation
     End Site
     {
      OFFSET 0.000000 -1.423100 5.872300
     }
    }
   }
  }
 }
}
MOTION
Frames: 12
Frame Time: 0.008333
-53.390366 48.849624 35.990590 173.997530 -36.243009 -5.750502 5.783238 19.998845 4.815625 0.688861 2.669460 0.545977 1.068788 4.266860 0.810976 4.909456 17.074391 4.027253 -2.024275 18.056975 1.049081 -3.973660 -2.019673 2.660255 -0.100174 -0.397148 -4.101082 6.679428 -6.334226 0.838959 64.461747 -77.201054 -77.091431 1.074858 -0.757053 -0.649137 -11.811429 1.445708 -1.206018 2.246334 -4.712591 -0.280917 -116.286154 -77.070102 120.996433 13.716576 -3.305234 0.684487 10.174409 -47.456442 5.065777 -39.832426 84.397500 -28.638673 -3.999924 0.514058 2.887779 0.045110 -1.013756 -0.636481 -12.437004 -49.031427 15.901506 -136.318112 86.713552 -142.746125 1.478465 -8.602525 3.106971 0.012203 -0.000691 -0.018603
-53.403428 48.856556 35.995543 174.070011 -36.249323 -5.744467 5.768025 20.080559 4.862263 0.661231 2.631977 0.511850 1.093016 4.295171 0.852394 4.868751 17.040785 3.995663 -2.003200 18.140892 1.063715 -4.002884 -1.999213 2.625591 -0.135079 -0.396087 -4.110545 6.660248 -6.332631 0.874389 64.571835 -77.235121 -77.193757 1.091381 -0.710812 -0.509583 -11.849827 1.451907 -1.208357 2.201043 -4.721279 -0.271941 -115.985949 -77.053315 120.752151 13.648007 -3.228266 0.555158 10.201465 -47.199024 4.941616 -41.292238 84.421117 -30.103007 -3.432501 0.117010 3.073166 0.023247 -0.725146 -0.623736 -12.449454 -49.021323 15.799222 -136.149111 86.745008 -142.577112 1.501142 -8.583507 3.114760 0.010030 -0.000057 -0.033817
-53.419287 48.856964 36.009391 174.082741 -36.199390 -5.695663 5.759564 20.066485 4.857235 0.661418 2.629830 0.513330 1.084623 4.285724 0.840539 4.885528 17.037963 4.021455 -2.000205 18.195354 1.058573 -4.020133 -1.942607 2.595404 -0.157731 -0.369926 -4.085847 6.607539 -6.334523 0.871255 64.745635 -77.270995 -77.343688 1.110662 -0.659180 -0.374661 -11.859456 1.499019 -1.182127 2.128111 -4.776683 -0.297455 -115.624705 -77.023456 120.451721 13.558864 -3.100909 0.354571 10.256102 -46.954535 4.843637 -41.356077 84.429629 -30.165193 -3.063806 -0.667798 2.992768 0.010198 -0.166649 -0.434827 -12.424990 -49.080075 15.675783 -136.372955 86.800769 -142.770944 1.531927 -8.552492 3.083808 0.000035 -0.001765 -0.034637
-53.436320 48.850762 36.032894 174.044089 -36.089412 -5.619074 5.787959 19.984468 4.850175 0.662625 2.628063 0.515696 1.086641 4.282937 0.844471 4.896331 17.029167 4.038943 -2.010054 18.235055 1.041866 -4.031369 -1.869258 2.566381 -0.209753 -0.371174 -4.121828 6.559658 -6.299165 0.930853 65.052318 -77.262387 -77.616944 1.099471 -0.597480 -0.243728 -11.906509 1.494656 -1.217577 2.077809 -4.798955 -0.225258 -115.280280 -77.026018 120.183065 13.441257 -2.908803 0.063238 10.296013 -46.776748 4.805718 -39.715120 84.456255 -28.571827 -2.902059 -1.524079 2.750767 0.008467 0.381922 -0.159163 -12.370116 -49.212772 15.537743 -136.838208 86.866218 -143.162671 1.564738 -8.510931 3.041115 0.005479 -0.004111 -0.049846
-53.439014 48.851333 36.051676 173.997425 -36.040515 -5.623027 5.870198 19.942547 4.941520 0.664256 2.628616 0.519386 1.098086 4.289848 0.864749 4.895830 17.020671 4.048847 -2.022900 18.272604 1.023611 -4.047761 -1.799804 2.535622 -0.271151 -0.373064 -4.161353 6.513918 -6.248632 0.994460 65.441807 -77.251103 -77.974846 1.115744 -0.524729 -0.114490 -11.960777 1.487663 -1.256369 2.057245 -4.819978 -0.231045 -114.877273 -76.957017 119.837123 13.290170 -2.635832 -0.346342 10.173310 -46.584126 4.990779 -37.883757 84.451290 -26.849212 -2.807765 -2.181424 2.509549 -0.000565 0.703516 0.063198 -12.358736 -49.273737 15.512176 -137.697121 86.921680 -143.939149 1.573224 -8.478398 3.043535 0.002830 -0.012609 -0.083367
-53.447626 48.853901 36.066925 174.003925 -36.014966 -5.621205 5.908047 19.924704 5.001794 0.665974 2.631234 0.523872 1.100895 4.293712 0.872062 4.907268 17.022626 4.077122 -2.039182 18.305171 1.003684 -4.070224 -1.739523 2.503042 -0.309512 -0.368305 -4.186678 6.452240 -6.188847 1.046157 66.004132 -77.275606 -78.510277 1.205110 -0.411831 0.010640 -11.944952 1.525247 -1.245218 1.972242 -4.909890 -0.255153 -114.517602 -76.928284 119.543282 13.110803 -2.269083 -0.894794 9.961048 -46.380382 5.171896 -36.697581 84.411831 -25.792428 -2.721150 -2.768424 2.276406 0.005501 0.927025 0.210845 -12.322254 -49.315254 15.394581 -138.953814 86.999467 -145.093581 1.573915 -8.448325 2.988075 -0.001592 -0.016504 -0.095875
-53.460039 48.857538 36.080846 174.019649 -36.003000 -5.599060 5.936828 19.928552 5.039760 0.667392 2.633885 0.528708 1.103190 4.297610 0.879969 4.916705 17.024692 4.107492 -2.057327 18.330240 0.981346 -4.095564 -1.693206 2.466917 -0.287115 -0.354741 -4.184414 6.354786 -6.122044 1.072932 66.726450 -77.199529 -79.241795 1.243453 -0.284223 0.160557 -11.945158 1.534328 -1.251633 2.005750 -5.026706 -0.235078 -114.207981 -76.952756 119.208285 12.914381 -1.813962 -1.587184 9.697763 -46.179856 5.365436 -35.701597 84.372512 -24.895383 -2.924545 -3.334673 1.992942 0.004842 0.993188 0.279917 -12.274002 -49.339376 15.263826 -140.159518 87.080732 -146.229281 1.547984 -8.414185 2.951526 0.000544 -0.019358 -0.087924
-53.472840 48.860617 36.096969 174.040697 -35.983699 -5.573634 5.961927 19.936740 5.072702 0.668095 2.635541 0.533527 1.089173 4.290981 0.870663 4.942993 17.032567 4.155473 -2.075923 18.346880 0.956917 -4.121206 -1.662681 2.427374 -0.271039 -0.360510 -4.203812 6.293054 -6.035642 1.122420 67.589910 -77.078329 -80.146919 1.291069 -0.127437 0.345562 -11.949284 1.525547 -1.269304 2.023629 -5.100731 -0.249444 -114.008026 -76.929722 119.016884 12.700281 -1.302367 -2.403026 9.402492 -46.033795 5.598174 -33.850926 84.373317 -23.109351 -3.618680 -3.757075 1.613889 -0.010499 0.853494 0.336789 -12.243932 -49.365627 15.172757 -140.635775 87.139317 -146.683053 1.529527 -8.377184 2.958628 0.009294 -0.018613 -0.067650
-53.488288 48.859538 36.120180 174.099382 -35.916776 -5.550159 5.914881 19.894810 5.042938 0.696985 2.654385 0.568995 1.089203 4.292456 0.878119 4.904085 17.015810 4.133565 -2.085296 18.353158 0.944302 -4.107853 -1.618096 2.397454 -0.219332 -0.356617 -4.194168 6.253160 -5.941463 1.173888 68.481746 -76.932539 -81.103234 1.369491 0.040593 0.584959 -11.903202 1.537215 -1.253255 2.060701 -5.175024 -0.268581 -113.919084 -76.919289 118.917129 12.464495 -0.775332 -3.302262 9.125654 -45.992995 5.758109 -30.863317 84.437083 -20.162229 -4.417138 -3.987963 1.153351 -0.008162 0.723728 0.479745 -12.202570 -49.457369 14.985584 -142.042970 87.236503 -147.999184 1.540519 -8.331686 2.924105 -0.004483 -0.015169 -0.077393
-53.499977 48.860590 36.143625 174.163253 -35.863385 -5.540708 5.917133 19.889894 5.092534 0.681873 2.646772 0.558810 1.103185 4.303786 0.902714 4.900652 17.016257 4.168393 -2.106749 18.363330 0.911327 -4.177168 -1.650222 2.355291 -0.213819 -0.384276 -4.242068 6.212539 -5.849036 1.211094 69.399412 -76.766075 -82.092123 1.471444 0.224860 0.891826 -11.905058 1.504721 -1.292246 2.113492 -5.246494 -0.289433 -113.904944 -76.914650 118.879902 12.223898 -0.265853 -4.258481 8.918520 -45.975933 5.861109 -28.633344 84.482107 -17.956828 -4.920076 -4.087577 0.752441 -0.003116 0.633232 0.614339 -12.195983 -49.534627 14.812573 -144.886575 87.367571 -150.732816 1.482936 -8.281816 2.834206 0.000924 -0.010365 -0.064239
-53.508626 48.863997 36.166798 174.223770 -35.827189 -5.533770 5.927759 19.897645 5.153653 0.635882 2.624277 0.511241 1.133142 4.323160 0.945304 4.911726 17.029256 4.221901 -2.125314 18.372684 0.879430 -4.245986 -1.686271 2.308113 -0.206596 -0.415930 -4.290162 6.161765 -5.785123 1.214897 70.206796 -76.607610 -82.953340 1.595013 0.422798 1.270794 -11.900082 1.463260 -1.337719 2.173516 -5.311074 -0.310166 -113.893802 -76.899779 118.847391 12.008298 0.205452 -5.260614 8.808204 -46.011454 5.882308 -28.601114 84.512416 -17.898270 -5.109150 -4.089501 0.459257 -0.001709 0.492283 0.656418 -12.195775 -49.578486 14.675434 -147.037983 87.475808 -152.808270 1.441838 -8.237988 2.766237 0.003593 -0.008230 -0.051986
-53.516888 48.868119 36.190876 174.286493 -35.795247 -5.516503 5.918706 19.899538 5.182068 0.603002 2.613425 0.480671 1.132569 4.324467 0.948904 4.942371 17.047515 4.286079 -2.136646 18.381862 0.856854 -4.263923 -1.671656 2.266031 -0.188672 -0.434523 -4.310384 6.094874 -5.769750 1.170319 70.814738 -76.485915 -83.582320 1.735758 0.633405 1.724078 -11.872913 1.430985 -1.365166 2.233632 -5.364247 -0.330828 -113.862396 -76.865267 118.802383 11.832395 0.632499 -6.290369 8.793449 -46.070788 5.818079 -30.359122 84.502624 -19.586562 -5.070724 -4.016297 0.280308 -0.004798 0.327409 0.615647 -12.193265 -49.619073 14.545724 -148.717379 87.570374 -154.437163 1.409084 -8.191450 2.714933 0.005584 -0.005301 -0.040337
